#!OML:ASF I:\golf\golf\golf 2\Subject 1\2002-09-07\Subject1.ASF
:FULLY-SPECIFIED
:DEGREES
500
root 1.41258 17.9685 -6.77438 4.53505 1.98194 -6.20335
lowerback 0.817092 -0.739252 -1.58554
upperback 0.928422 -1.01622 5.59015
thorax 0.628966 -0.54414 6.69986
lowerneck -18.6116 -0.19885 -0.0433135
upperneck 38.2447 2.5598 -6.87318
head 17.2619 0.0400837 -2.60784
rclavicle -1.76918e-014 -2.8625e-014
rhumerus -28.7425 -1.34452 -76.9851
rradius 36.8923
rwrist -21.3427
rhand -21.5594 8.41976
rfingers 7.12502
rthumb 4.83421 -21.5051
lclavicle -1.76918e-014 -2.8625e-014
lhumerus -27.7075 5.39679 81.066
lradius 31.3644
lwrist 7.55321
lhand -14.3725 33.4835
lfingers 7.12502
lthumb 11.7699 63.1328
rfemur -28.9658 -6.3065 25.0029
rtibia 39.205
rfoot -11.3641 -9.61067
rtoes -7.60093
lfemur -5.87657 4.85595 -17.7615
ltibia 24.0738
lfoot -17.9967 -2.0565
ltoes -1.21223
501
root 1.40978 17.9683 -6.78364 4.38995 1.83076 -5.76606
lowerback 0.763814 -0.694388 -1.95073
upperback 0.752261 -0.950997 5.36759
thorax 0.470877 -0.505495 6.67417
lowerneck -18.4321 -0.195305 0.0865
upperneck 38.3776 2.52074 -6.8763
head 17.2865 0.044263 -2.64481
rclavicle -4.27387e-015 3.02153e-014
rhumerus -29.2983 -1.67222 -77.0239
rradius 35.9741
rwrist -20.6886
rhand -21.0605 8.65497
rfingers 7.12502
rthumb 5.31591 -21.2584
lclavicle -4.27387e-015 3.02153e-014
lhumerus -28.0452 5.15009 80.9741
lradius 31.7476
lwrist 7.66784
lhand -14.5253 33.6471
lfingers 7.12502
lthumb 11.6226 63.3047
rfemur -28.6054 -6.54951 24.3823
rtibia 39.861
rfoot -11.7134 -9.61296
rtoes -6.62977
lfemur -5.62184 4.87667 -18.2637
ltibia 23.9411
lfoot -18.1015 -1.88575
ltoes -1.76913
502
root 1.40597 17.9713 -6.79807 4.2839 1.78397 -5.3065
lowerback 0.664599 -0.654078 -2.35871
upperback 0.675353 -0.896089 5.15683
thorax 0.443072 -0.476848 6.68482
lowerneck -18.4887 -0.198967 0.195765
upperneck 38.4254 2.4593 -6.82923
head 17.3222 0.0412775 -2.65811
rclavicle -5.76476e-015 2.14687e-014
rhumerus -29.6235 -2.11684 -76.9995
rradius 35.0797
rwrist -19.9982
rhand -20.7172 8.79527
rfingers 7.12502
rthumb 5.64735 -21.1095
lclavicle -5.76476e-015 2.14687e-014
lhumerus -28.1436 4.7251 80.9822
lradius 32.1056
lwrist 7.92657
lhand -14.3859 33.4037
lfingers 7.12502
lthumb 11.7569 63.0537
rfemur -28.303 -6.76829 23.7212
rtibia 40.4786
rfoot -12.0176 -9.68025
rtoes -6.6358
lfemur -5.50279 4.77068 -18.7763
ltibia 23.8229
lfoot -18.0666 -1.85663
ltoes -1.50591
503
root 1.39613 17.9768 -6.82032 4.26136 1.92918 -5.21841
lowerback 0.525896 -0.69375 -2.48901
upperback 0.627498 -0.948311 5.12156
thorax 0.480221 -0.503531 6.72103
lowerneck -18.6566 -0.205622 0.151076
upperneck 38.4382 2.4372 -6.74368
head 17.3685 0.0352563 -2.61811
rclavicle 7.65321e-015 5.56597e-015
rhumerus -29.7221 -2.55166 -76.9024
rradius 34.1424
rwrist -19.2496
rhand -20.4794 8.76236
rfingers 7.12502
rthumb 5.87694 -21.1361
lclavicle 7.65321e-015 5.56597e-015
lhumerus -28.0852 4.41777 81.0815
lradius 32.3996
lwrist 8.32666
lhand -14.4512 33.2667
lfingers 7.12502
lthumb 11.694 62.9203
rfemur -28.0829 -6.95304 23.5195
rtibia 41.0058
rfoot -12.3855 -9.94121
rtoes -5.14391
lfemur -5.61736 4.60486 -18.8216
ltibia 23.7602
lfoot -17.8406 -2.08811
ltoes -0.254725
504
root 1.38528 17.9787 -6.84107 4.24875 2.01196 -5.25962
lowerback 0.352294 -0.735494 -2.55052
upperback 0.601332 -1.00389 5.16625
thorax 0.560309 -0.533467 6.80182
lowerneck -18.8482 -0.218696 0.0786718
upperneck 38.4583 2.43516 -6.70359
head 17.4279 0.0260747 -2.59098
rclavicle -2.5842e-015 -1.35174e-014
rhumerus -29.7111 -2.97391 -76.7657
rradius 33.0988
rwrist -18.5449
rhand -20.2934 8.77929
rfingers 7.12502
rthumb 6.0566 -21.1141
lclavicle -2.5842e-015 -1.35174e-014
lhumerus -27.9302 4.44925 81.1949
lradius 32.537
lwrist 8.52142
lhand -14.705 33.2189
lfingers 7.12502
lthumb 11.4492 62.8862
rfemur -27.8229 -7.15915 23.4934
rtibia 41.4262
rfoot -12.3346 -10.324
rtoes -4.56941
lfemur -5.76277 4.57993 -18.7177
ltibia 23.8283
lfoot -17.6919 -2.3172
ltoes 0.815667
505
root 1.37581 17.9768 -6.85797 4.18452 2.01902 -5.23889
lowerback 0.202818 -0.748105 -2.63954
upperback 0.583031 -1.02027 5.17044
thorax 0.629421 -0.543587 6.85578
lowerneck -19.0125 -0.213747 0.0769362
upperneck 38.4546 2.43429 -6.67126
head 17.4675 0.0275804 -2.57818
rclavicle -1.39149e-015 2.14687e-014
rhumerus -29.7393 -3.39413 -76.6649
rradius 32.0488
rwrist -17.8094
rhand -20.3235 8.76155
rfingers 7.12502
rthumb 6.02752 -21.1327
lclavicle -1.39149e-015 2.14687e-014
lhumerus -27.8663 4.51209 81.2666
lradius 32.7057
lwrist 8.50785
lhand -14.9135 33.3434
lfingers 7.12502
lthumb 11.2482 63.0218
rfemur -27.4529 -7.3675 23.3675
rtibia 41.78
rfoot -12.4044 -10.4675
rtoes -3.23198
lfemur -5.83799 4.67272 -18.6898
ltibia 23.9986
lfoot -17.7652 -2.42416
ltoes 0.959144
506
root 1.37351 17.9786 -6.86601 4.14564 1.92718 -5.50119
lowerback -0.0830045 -0.764464 -2.39031
upperback 0.421789 -1.03858 5.27651
thorax 0.623589 -0.548163 6.82144
lowerneck -18.7076 -0.1801 0.040927
upperneck 38.4061 2.50389 -6.7068
head 17.3669 0.0497832 -2.56748
rclavicle 4.52235e-015 4.85035e-014
rhumerus -30.1606 -3.6158 -76.4919
rradius 31.1666
rwrist -16.9897
rhand -20.4182 8.45355
rfingers 7.12502
rthumb 5.93611 -21.4433
lclavicle 4.52235e-015 4.85035e-014
lhumerus -28.3139 4.48722 81.367
lradius 33.0684
lwrist 8.54609
lhand -14.8333 33.5501
lfingers 7.12502
lthumb 11.3255 63.2243
rfemur -27.0382 -7.51824 23.4997
rtibia 42.1085
rfoot -12.6501 -10.5062
rtoes -2.13598
lfemur -5.86391 4.81454 -18.4001
ltibia 24.1458
lfoot -17.9453 -2.39937
ltoes 0.850955
507
root 1.3702 17.9787 -6.8775 4.13978 1.86437 -5.69915
lowerback -0.358914 -0.684139 -2.09704
upperback 0.493143 -0.935765 5.28332
thorax 0.833402 -0.501111 6.65626
lowerneck -19.2131 -0.224609 0.0569431
upperneck 38.409 2.43014 -6.67221
head 17.4941 0.0203681 -2.57642
rclavicle -1.15792e-014 4.13472e-014
rhumerus -30.0615 -4.43151 -76.2473
rradius 30.1964
rwrist -16.0255
rhand -20.1319 8.31891
rfingers 7.12502
rthumb 6.21244 -21.57
lclavicle -1.15792e-014 4.13472e-014
lhumerus -28.0904 4.22745 81.5309
lradius 33.356
lwrist 8.59401
lhand -14.4825 33.8863
lfingers 7.12502
lthumb 11.6638 63.5416
rfemur -26.6706 -7.62246 23.5713
rtibia 42.4321
rfoot -12.6391 -10.7607
rtoes -2.32666
lfemur -5.92765 4.87151 -18.1848
ltibia 24.2546
lfoot -18.0255 -2.34991
ltoes 0.681626
508
root 1.35567 17.9777 -6.89539 4.11914 1.93913 -5.66336
lowerback -0.478911 -0.686835 -2.21976
upperback 0.460819 -0.937932 5.2735
thorax 0.869703 -0.503093 6.71555
lowerneck -19.3642 -0.23595 0.0193894
upperneck 38.2835 2.38235 -6.57097
head 17.4572 0.00909328 -2.52787
rclavicle -6.26172e-015 -4.13472e-014
rhumerus -30.0205 -5.14427 -75.9994
rradius 29.1441
rwrist -15.1268
rhand -19.7944 8.36194
rfingers 7.12502
rthumb 6.53827 -21.5171
lclavicle -6.26172e-015 -4.13472e-014
lhumerus -28.0532 4.08809 81.6611
lradius 33.5854
lwrist 8.73057
lhand -14.3998 33.7935
lfingers 7.12502
lthumb 11.7436 63.4443
rfemur -26.3344 -7.69419 23.4293
rtibia 42.7488
rfoot -12.6913 -11.1068
rtoes -1.13446
lfemur -6.03245 4.87124 -18.1622
ltibia 24.3529
lfoot -18.01 -2.37365
ltoes 0.251625
509
root 1.34272 17.9799 -6.90516 4.12433 1.8891 -5.693
lowerback -0.771267 -0.653794 -2.24065
upperback 0.407861 -0.892754 5.25053
thorax 0.973296 -0.481648 6.70102
lowerneck -19.2976 -0.259728 0.0128835
upperneck 38.1062 2.28315 -6.44503
head 17.3319 -0.0113098 -2.47814
rclavicle 1.03865e-014 -3.18055e-014
rhumerus -30.1227 -5.80708 -75.8121
rradius 28.2009
rwrist -14.3731
rhand -19.8358 8.07986
rfingers 7.12502
rthumb 6.49838 -21.8004
lclavicle 1.03865e-014 -3.18055e-014
lhumerus -28.2133 3.81832 81.7798
lradius 33.8777
lwrist 8.94917
lhand -14.3964 33.1467
lfingers 7.12502
lthumb 11.7469 62.7973
rfemur -26.026 -7.71965 23.3509
rtibia 43.0796
rfoot -12.7498 -11.3838
rtoes -0.0102041
lfemur -6.1131 4.92256 -18.0902
ltibia 24.4218
lfoot -18.0294 -2.33934
ltoes 0.151667
510
root 1.33919 17.9804 -6.9056 4.12285 1.59314 -5.74496
lowerback -1.21784 -0.533804 -2.16002
upperback 0.403034 -0.734717 5.23493
thorax 1.197 -0.406479 6.63749
lowerneck -19.1695 -0.304202 0.0454033
upperneck 37.8867 2.16638 -6.40038
head 17.1704 -0.0435477 -2.47353
rclavicle -1.38652e-014 -8.74653e-015
rhumerus -30.2852 -6.6377 -75.4695
rradius 27.2786
rwrist -13.4679
rhand -19.7604 7.99629
rfingers 7.12502
rthumb 6.57113 -21.8818
lclavicle -1.38652e-014 -8.74653e-015
lhumerus -28.4219 3.52803 81.9661
lradius 34.279
lwrist 8.97388
lhand -14.0579 33.1356
lfingers 7.12502
lthumb 12.0733 62.7673
rfemur -25.6858 -7.65987 23.257
rtibia 43.4071
rfoot -12.6998 -11.5433
rtoes -0.482885
lfemur -6.08821 5.01207 -18.0546
ltibia 24.43
lfoot -18.0588 -2.22814
ltoes 1.04424
511
root 1.32947 17.981 -6.92051 4.11078 1.66148 -5.6571
lowerback -1.34928 -0.543525 -2.28385
upperback 0.330043 -0.74347 5.20718
thorax 1.19798 -0.410152 6.67855
lowerneck -19.0935 -0.327723 0.0854325
upperneck 37.6436 2.08549 -6.37111
head 17.0138 -0.063225 -2.47002
rclavicle -1.14798e-014 -1.59028e-015
rhumerus -30.4352 -7.57476 -75.0681
rradius 26.3443
rwrist -12.5513
rhand -19.4987 8.00088
rfingers 7.12502
rthumb 6.82378 -21.8692
lclavicle -1.14798e-014 -1.59028e-015
lhumerus -28.5607 3.32458 82.1312
lradius 34.5233
lwrist 8.96655
lhand -13.8387 33.6068
lfingers 7.12502
lthumb 12.2847 63.2259
rfemur -25.3325 -7.7749 23.0221
rtibia 43.6947
rfoot -12.9206 -11.728
rtoes -0.408965
lfemur -6.13874 4.92526 -18.1075
ltibia 24.4291
lfoot -17.9818 -2.35968
ltoes 1.91402
512
root 1.3219 17.9809 -6.93318 4.09884 1.64044 -5.60165
lowerback -1.40543 -0.531906 -2.26323
upperback 0.201385 -0.723254 5.1144
thorax 1.09238 -0.394148 6.56813
lowerneck -19.0268 -0.344419 0.125687
upperneck 37.4601 1.98071 -6.2482
head 16.8891 -0.0803022 -2.43204
rclavicle -3.03147e-015 -6.20208e-014
rhumerus -30.6747 -8.36346 -74.8371
rradius 25.4922
rwrist -11.8514
rhand -19.5713 7.66076
rfingers 7.12502
rthumb 6.75369 -22.2115
lclavicle -3.03147e-015 -6.20208e-014
lhumerus -28.7617 3.12455 82.1823
lradius 34.5806
lwrist 9.11778
lhand -13.9719 33.5118
lfingers 7.12502
lthumb 12.1562 63.1386
rfemur -24.9747 -7.78682 22.7834
rtibia 43.938
rfoot -13.0733 -11.8411
rtoes -0.00164572
lfemur -6.13032 4.77971 -18.1634
ltibia 24.4111
lfoot -17.9435 -2.18776
ltoes 1.66261
513
root 1.3133 17.9795 -6.94447 4.12941 1.5492 -5.68784
lowerback -1.51919 -0.495867 -2.10363
upperback 0.051787 -0.672936 5.07011
thorax 0.992811 -0.362267 6.42963
lowerneck -18.9368 -0.372287 0.144591
upperneck 37.2953 1.88041 -6.15473
head 16.7706 -0.10297 -2.4036
rclavicle -4.07509e-015 -4.37326e-014
rhumerus -30.9035 -9.15121 -74.5786
rradius 24.6315
rwrist -11.0687
rhand -19.7924 7.62034
rfingers 7.12502
rthumb 6.54026 -22.2587
lclavicle -4.07509e-015 -4.37326e-014
lhumerus -29.0216 2.95759 82.2568
lradius 34.653
lwrist 9.24177
lhand -14.0788 33.5931
lfingers 7.12502
lthumb 12.0531 63.226
rfemur -24.6617 -7.74273 22.7157
rtibia 44.1431
rfoot -12.9563 -11.9333
rtoes 0.198808
lfemur -6.1429 4.7802 -18.0617
ltibia 24.3594
lfoot -17.9034 -2.0312
ltoes 1.38153
514
root 1.30251 17.98 -6.9545 4.12203 1.49999 -5.66729
lowerback -1.6979 -0.483136 -2.16787
upperback -0.00235521 -0.653802 5.0774
thorax 1.03578 -0.352867 6.47405
lowerneck -19.0206 -0.394339 0.0766666
upperneck 37.1738 1.82814 -6.05664
head 16.7221 -0.120307 -2.35304
rclavicle -2.48481e-015 3.18055e-015
rhumerus -30.9708 -10.0311 -74.1659
rradius 23.7425
rwrist -10.1751
rhand -19.8427 7.73304
rfingers 7.12502
rthumb 6.4917 -22.1475
lclavicle -2.48481e-015 3.18055e-015
lhumerus -29.1377 2.91643 82.4285
lradius 34.7166
lwrist 9.16869
lhand -13.9524 33.975
lfingers 7.12502
lthumb 12.175 63.6007
rfemur -24.2739 -7.71272 22.5532
rtibia 44.3069
rfoot -12.8462 -12.0978
rtoes -0.575631
lfemur -6.14122 4.8474 -18.0488
ltibia 24.3108
lfoot -17.7925 -2.0303
ltoes 1.50509
